<?xml version="1.0" encoding="utf-8"?>
<!-- Generator: Adobe Illustrator 15.0.0, SVG Export Plug-In . SVG Version: 6.00 Build 0)  -->
<!DOCTYPE svg PUBLIC "-//W3C//DTD SVG 1.1//EN" "http://www.w3.org/Graphics/SVG/1.1/DTD/svg11.dtd">
<svg version="1.1" id="Capa_1" xmlns="http://www.w3.org/2000/svg" xmlns:xlink="http://www.w3.org/1999/xlink" x="0px" y="0px"
	 width="612px" height="792px" viewBox="0 0 612 792" enable-background="new 0 0 612 792" xml:space="preserve">
<g>
	<g>
		<path fill="#FBFAEB" d="M305.962,96.37C137.012,96.37,0,233.917,0,403.594c0,135.711,87.669,250.844,209.304,291.503
			c15.3,2.831,20.884-6.655,20.884-14.803c0-7.306-0.268-26.622-0.421-52.249c-85.106,18.551-103.083-41.195-103.083-41.195
			c-13.885-35.496-33.966-44.943-33.966-44.943c-27.808-19.049,2.066-18.666,2.066-18.666c30.714,2.18,46.856,31.671,46.856,31.671
			c27.311,46.933,71.643,33.392,89.084,25.513c2.754-19.852,10.671-33.393,19.431-41.081
			c-67.932-7.765-139.383-34.119-139.383-151.814c0-33.545,11.934-60.971,31.518-82.467c-3.175-7.765-13.655-39.015,2.983-81.281
			c0,0,25.704-8.262,84.15,31.48c24.404-6.809,50.567-10.213,76.615-10.328c25.972,0.153,52.173,3.519,76.615,10.366
			c58.407-39.742,84.073-31.479,84.073-31.479c16.677,42.304,6.196,73.517,3.06,81.281c19.623,21.497,31.441,48.922,31.441,82.467
			c0,118.001-71.527,143.973-139.688,151.584c10.978,9.486,20.77,28.229,20.77,56.878c0,41.081-0.383,74.205-0.383,84.265
			c0,8.224,5.509,17.786,21.038,14.765C524.407,654.36,612,539.267,612,403.594C612,233.917,474.988,96.37,305.962,96.37z"/>
	</g>
</g>
</svg>
